<?xml version="1.0" encoding="UTF-8" standalone="no"?>
<!-- Created with Inkscape (http://www.inkscape.org/) -->

<svg
   width="213.58148mm"
   height="70.261696mm"
   viewBox="0 0 213.58148 70.261699"
   version="1.1"
   id="svg1"
   xml:space="preserve"
   inkscape:version="1.4.2 (ebf0e94, 2025-05-08)"
   sodipodi:docname="eSC-AI logo W.svg"
   inkscape:export-filename="LuxSCale.png"
   inkscape:export-xdpi="72"
   inkscape:export-ydpi="72"
   xmlns:inkscape="http://www.inkscape.org/namespaces/inkscape"
   xmlns:sodipodi="http://sodipodi.sourceforge.net/DTD/sodipodi-0.dtd"
   xmlns="http://www.w3.org/2000/svg"
   xmlns:svg="http://www.w3.org/2000/svg"><sodipodi:namedview
     id="namedview1"
     pagecolor="#ffffff"
     bordercolor="#000000"
     borderopacity="0.25"
     inkscape:showpageshadow="2"
     inkscape:pageopacity="0.0"
     inkscape:pagecheckerboard="0"
     inkscape:deskcolor="#d1d1d1"
     inkscape:document-units="mm"
     inkscape:zoom="0.36792228"
     inkscape:cx="233.74502"
     inkscape:cy="449.82326"
     inkscape:window-width="1920"
     inkscape:window-height="1048"
     inkscape:window-x="0"
     inkscape:window-y="0"
     inkscape:window-maximized="1"
     inkscape:current-layer="layer1" /><defs
     id="defs1" /><g
     inkscape:label="Layer 1"
     inkscape:groupmode="layer"
     id="layer1"
     transform="translate(144.94698,-177.26206)"><g
       id="g9"
       transform="matrix(1.4735207,0,0,1.4735207,694.47995,-539.84541)"
       style="stroke-width:0.678647"><g
         id="text7"
         style="font-size:47.9957px;line-height:1.25;font-family:Poppins;-inkscape-font-specification:'Poppins, Normal';letter-spacing:0px;stroke-width:0.179558"
         aria-label="e     -AI"><path
           style="font-weight:500;font-family:'IBM Plex Sans Arabic';-inkscape-font-specification:'IBM Plex Sans Arabic Medium';stroke-width:0.179558;fill:#ffffff"
           d="m -558.20337,532.74825 q -2.68776,0 -4.79957,-0.91192 -2.11181,-0.91192 -3.59968,-2.59177 -1.48787,-1.72784 -2.30379,-4.12763 -0.76793,-2.44778 -0.76793,-5.42351 0,-2.97573 0.76793,-5.37552 0.81592,-2.44778 2.30379,-4.12763 1.48787,-1.72784 3.59968,-2.63976 2.11181,-0.91192 4.79957,-0.91192 2.73575,0 4.79957,0.95991 2.11181,0.95992 3.50368,2.68776 1.39188,1.67985 2.06382,3.93565 0.71994,2.2558 0.71994,4.84757 v 1.96782 h -17.13447 v 0.81593 q 0,2.87974 1.67985,4.75157 1.72784,1.82384 4.89556,1.82384 2.30379,0 3.88765,-1.00791 1.58386,-1.00791 2.68776,-2.73576 l 3.07173,3.02373 q -1.39188,2.3038 -4.03164,3.69567 -2.63977,1.34388 -6.14345,1.34388 z m 0,-22.03003 q -1.34388,0 -2.49578,0.47996 -1.1039,0.47996 -1.91983,1.34388 -0.76793,0.86392 -1.19989,2.06382 -0.43196,1.19989 -0.43196,2.63976 v 0.33597 h 11.61496 v -0.47996 q 0,-2.87974 -1.48787,-4.60759 -1.48786,-1.77584 -4.07963,-1.77584 z"
           id="path8" /><path
           style="font-weight:300;font-family:'IBM Plex Sans Arabic';-inkscape-font-specification:'IBM Plex Sans Arabic Light';stroke-width:0.179558;fill:#ffffff"
           d="m -484.86639,519.02148 v -2.92774 h 11.95093 v 2.92774 z m 40.1723,13.15082 -3.64767,-10.41506 h -14.25473 l -3.64767,10.41506 h -2.87974 l 11.85494,-33.501 h 3.69567 l 11.90293,33.501 z m -10.70304,-30.76524 h -0.19198 l -6.28744,17.8544 h 12.76686 z m 17.9983,30.76524 v -2.39978 h 4.89556 v -28.70143 h -4.89556 v -2.39979 h 12.67086 v 2.39979 h -4.89556 v 28.70143 h 4.89556 v 2.39978 z"
           id="path9" /></g><path
         style="font-weight:bold;font-size:66.5962px;line-height:1.25;font-family:Bison;-inkscape-font-specification:'Bison Bold';letter-spacing:0px;fill:#eb1b26;stroke-width:0.179558"
         d="m -530.41325,534.34551 q 4.79493,0 7.72516,-2.73044 3.32981,-3.19662 3.32981,-8.7241 v -2.93024 q 0,-6.39323 -4.92812,-10.78858 -1.33192,-1.19873 -4.79493,-3.06342 -1.93129,-1.06554 -2.59725,-1.59831 -2.46406,-2.19768 -2.46406,-5.2611 v -1.13214 q 0,-2.39746 0.99895,-3.32981 0.86575,-0.79915 2.73044,-0.79915 1.93129,0 2.73044,0.79915 0.99895,0.86575 0.99895,3.32981 v 4.06237 h 7.32558 v -4.06237 q 0,-5.52748 -3.32981,-8.7241 -2.93023,-2.73044 -7.72516,-2.73044 -4.79493,0 -7.72516,2.73044 -3.32981,3.19662 -3.32981,8.7241 v 1.13214 q 0,3.13002 1.26533,5.86046 1.26533,2.73045 3.66279,4.86152 1.46512,1.26533 4.59514,2.93024 2.26427,1.26533 2.79704,1.7315 2.46406,2.26427 2.46406,5.32769 v 2.93024 q 0,2.46406 -0.99895,3.32981 -0.79915,0.79915 -2.73044,0.79915 -1.86469,0 -2.73044,-0.79915 -0.99895,-0.93235 -0.99895,-3.32981 v -6.06026 h -7.32558 v 6.06026 q 0,5.52748 3.32981,8.7241 2.93023,2.73044 7.72516,2.73044 z m 25.90579,0 q 4.79493,0 7.72516,-2.73044 3.32981,-3.19662 3.32981,-8.7241 v -5.99366 h -7.32558 v 5.99366 q 0,2.46406 -0.93235,3.32981 -0.86575,0.79915 -2.79704,0.79915 -1.86469,0 -2.73044,-0.79915 -0.99895,-0.93235 -0.99895,-3.32981 v -24.77379 q 0,-2.39746 0.99895,-3.32981 0.86575,-0.79915 2.73044,-0.79915 1.93129,0 2.79704,0.79915 0.93235,0.86575 0.93235,3.32981 v 4.12897 h 7.32558 v -4.12897 q 0,-5.52748 -3.32981,-8.7241 -2.93023,-2.73044 -7.72516,-2.73044 -4.66173,0 -7.72516,2.73044 -3.32981,3.32981 -3.32981,8.7241 v 24.77379 q 0,5.39429 3.32981,8.7241 3.06343,2.73044 7.72516,2.73044 z"
         id="text8"
         aria-label="SC" /></g></g></svg>
